<svg xmlns="http://www.w3.org/2000/svg" viewBox="0 0 800 450">
  <defs>
    <linearGradient id="bg" x1="0%" y1="0%" x2="100%" y2="100%">
      <stop offset="0%" style="stop-color:#0a1628;stop-opacity:1" />
      <stop offset="100%" style="stop-color:#1a2f4f;stop-opacity:1" />
    </linearGradient>
    <linearGradient id="coin" x1="0%" y1="0%" x2="100%" y2="100%">
      <stop offset="0%" style="stop-color:#f7931a" />
      <stop offset="100%" style="stop-color:#f9b34c" />
    </linearGradient>
  </defs>
  <rect width="800" height="450" fill="url(#bg)" />
  <circle cx="400" cy="180" r="80" fill="none" stroke="rgba(247,147,26,0.15)" stroke-width="2" />
  <circle cx="400" cy="180" r="55" fill="none" stroke="rgba(247,147,26,0.25)" stroke-width="1.5" />
  <text x="400" y="195" text-anchor="middle" font-family="monospace" font-size="60" font-weight="bold" fill="url(#coin)">BTC</text>
  <text x="400" y="140" text-anchor="middle" font-family="sans-serif" font-size="12" fill="rgba(247,147,26,0.5)">&#9650; +245%</text>
  <path d="M160 380 L200 340 L240 370 L320 290 L380 330 L440 260 L500 310 L560 230 L620 280 L680 200" fill="none" stroke="rgba(50,215,75,0.3)" stroke-width="1.5" />
  <path d="M160 380 L200 340 L240 370 L320 290 L380 330 L440 260 L500 310 L560 230 L620 280 L680 200" fill="none" stroke="#32d74b" stroke-width="2.5" stroke-dasharray="8,4" />
  <rect x="160" y="390" width="480" height="2" rx="1" fill="rgba(255,255,255,0.1)" />
  <text x="160" y="420" font-family="sans-serif" font-size="10" fill="rgba(255,255,255,0.3)">JAN</text>
  <text x="260" y="420" font-family="sans-serif" font-size="10" fill="rgba(255,255,255,0.3)">MAR</text>
  <text x="360" y="420" font-family="sans-serif" font-size="10" fill="rgba(255,255,255,0.3)">MAY</text>
  <text x="460" y="420" font-family="sans-serif" font-size="10" fill="rgba(255,255,255,0.3)">JUL</text>
  <text x="560" y="420" font-family="sans-serif" font-size="10" fill="rgba(255,255,255,0.3)">SEP</text>
  <text x="640" y="420" font-family="sans-serif" font-size="10" fill="rgba(255,255,255,0.3)">NOV</text>
  <text x="400" y="450" text-anchor="middle" font-family="sans-serif" font-size="9" fill="rgba(255,255,255,0.2)">Crypto Tax Loopholes 2026</text>
</svg>
