<svg xmlns="http://www.w3.org/2000/svg" width="1200" height="675" viewBox="0 0 1200 675">
  <defs>
    <linearGradient id="bg" x1="0%" y1="0%" x2="100%" y2="100%"><stop offset="0%" style="stop-color:#0a1820"/><stop offset="50%" style="stop-color:#1a2e3a"/><stop offset="100%" style="stop-color:#0d222e"/></linearGradient>
    <linearGradient id="accent" x1="0%" y1="0%" x2="100%" y2="100%"><stop offset="0%" style="stop-color:#48cae4"/><stop offset="100%" style="stop-color:#0096c7"/></linearGradient>
  </defs>
  <rect width="1200" height="675" fill="url(#bg)"/>
  <circle cx="280" cy="160" r="280" fill="url(#accent)" opacity="0.06"/>
  <circle cx="920" cy="540" r="240" fill="url(#accent)" opacity="0.04"/>
  <text x="90" y="180" font-family="Arial, sans-serif" font-size="14" fill="#48cae4" opacity="0.6">US REAL ESTATE 2026</text>
  <text x="90" y="250" font-family="Arial, sans-serif" font-size="52" font-weight="bold" fill="#ffffff" opacity="0.95">Mortgage Rates 2026</text>
  <text x="90" y="310" font-family="Arial, sans-serif" font-size="42" font-weight="bold" fill="#48cae4">Homebuyer Guide</text>
  <text x="90" y="370" font-family="Arial, sans-serif" font-size="20" fill="#88bbbb">Fixed vs Adjustable Rate</text>
  <rect x="90" y="410" width="100" height="4" rx="2" fill="url(#accent)" opacity="0.8"/>
  <text x="90" y="450" font-family="Arial, sans-serif" font-size="14" fill="#669999">Affordability, rates &amp; lender tips</text>
  <rect x="920" y="240" width="140" height="90" rx="10" fill="url(#accent)" opacity="0.08"/>
  <rect x="920" y="240" width="140" height="90" rx="10" fill="none" stroke="url(#accent)" stroke-width="1.5" opacity="0.25"/>
  <rect x="935" y="255" width="110" height="6" rx="3" fill="#ffffff" opacity="0.15"/>
  <rect x="935" y="270" width="80" height="6" rx="3" fill="#ffffff" opacity="0.1"/>
  <polygon points="960,340 990,320 1020,340 1000,360 980,360" fill="url(#accent)" opacity="0.15"/>
</svg>