<svg xmlns="http://www.w3.org/2000/svg" width="1200" height="675" viewBox="0 0 1200 675">
  <defs>
    <linearGradient id="bg" x1="0%" y1="0%" x2="100%" y2="100%"><stop offset="0%" style="stop-color:#1a0a0a"/><stop offset="50%" style="stop-color:#2e1a1a"/><stop offset="100%" style="stop-color:#200e0e"/></linearGradient>
    <linearGradient id="accent" x1="0%" y1="0%" x2="100%" y2="100%"><stop offset="0%" style="stop-color:#e8734a"/><stop offset="100%" style="stop-color:#e65525"/></linearGradient>
  </defs>
  <rect width="1200" height="675" fill="url(#bg)"/>
  <circle cx="250" cy="180" r="290" fill="url(#accent)" opacity="0.07"/>
  <circle cx="950" cy="530" r="230" fill="url(#accent)" opacity="0.05"/>
  <text x="90" y="180" font-family="Arial, sans-serif" font-size="14" fill="#e8734a" opacity="0.6">YOUTUBE SEO US</text>
  <text x="90" y="250" font-family="Arial, sans-serif" font-size="52" font-weight="bold" fill="#ffffff" opacity="0.95">YouTube SEO US</text>
  <text x="90" y="310" font-family="Arial, sans-serif" font-size="42" font-weight="bold" fill="#e8734a">American Creators</text>
  <text x="90" y="370" font-family="Arial, sans-serif" font-size="20" fill="#bb9988">Grow Your Channel Fast</text>
  <rect x="90" y="410" width="100" height="4" rx="2" fill="url(#accent)" opacity="0.8"/>
  <text x="90" y="450" font-family="Arial, sans-serif" font-size="14" fill="#997766">Keywords, thumbnails &amp; audience retention</text>
  <rect x="930" y="220" width="70" height="70" rx="35" fill="url(#accent)" opacity="0.15"/>
  <polygon points="955,240 955,270 975,255" fill="white" opacity="0.7"/>
  <rect x="930" y="310" width="70" height="70" rx="35" fill="url(#accent)" opacity="0.08"/>
  <polygon points="955,330 955,360 975,345" fill="white" opacity="0.35"/>
  <rect x="1020" y="265" width="70" height="70" rx="35" fill="url(#accent)" opacity="0.1"/>
  <polygon points="1045,285 1045,315 1065,300" fill="white" opacity="0.45"/>
</svg>